<svg id="visual" viewBox="0 0 450 450" width="450" height="450" xmlns="http://www.w3.org/2000/svg" xmlns:xlink="http://www.w3.org/1999/xlink" version="1.1"><g transform="translate(212.82062905037742 212.34130426797446)"><path d="M156.7 -181.1C194.3 -155.2 209.9 -97.5 213.6 -42.7C217.3 12.2 209.1 64.1 181.6 98.4C154.1 132.8 107.3 149.6 57.8 174.3C8.3 199 -43.9 231.6 -89 224.1C-134 216.5 -171.8 168.8 -184.6 119.6C-197.4 70.5 -185.3 20 -173.5 -27.8C-161.7 -75.5 -150.3 -120.5 -121.4 -147.9C-92.6 -175.3 -46.3 -185.2 6.6 -193.1C59.6 -201 119.1 -207 156.7 -181.1" fill="#FF9d02"></path></g></svg>