<svg id="visual" viewBox="0 0 450 450" width="450" height="450" xmlns="http://www.w3.org/2000/svg" xmlns:xlink="http://www.w3.org/1999/xlink" version="1.1"><path d="M0 421L6.8 419.5C13.7 418 27.3 415 41 413.7C54.7 412.3 68.3 412.7 82 413.2C95.7 413.7 109.3 414.3 123 415.8C136.7 417.3 150.3 419.7 164 420.2C177.7 420.7 191.3 419.3 204.8 418.5C218.3 417.7 231.7 417.3 245.2 418.2C258.7 419 272.3 421 286 421.2C299.7 421.3 313.3 419.7 327 417.8C340.7 416 354.3 414 368 413.7C381.7 413.3 395.3 414.7 409 415.2C422.7 415.7 436.3 415.3 443.2 415.2L450 415L450 451L443.2 451C436.3 451 422.7 451 409 451C395.3 451 381.7 451 368 451C354.3 451 340.7 451 327 451C313.3 451 299.7 451 286 451C272.3 451 258.7 451 245.2 451C231.7 451 218.3 451 204.8 451C191.3 451 177.7 451 164 451C150.3 451 136.7 451 123 451C109.3 451 95.7 451 82 451C68.3 451 54.7 451 41 451C27.3 451 13.7 451 6.8 451L0 451Z" fill="#ff9d02"></path><path d="M0 430L6.8 430C13.7 430 27.3 430 41 429.2C54.7 428.3 68.3 426.7 82 426.7C95.7 426.7 109.3 428.3 123 427.8C136.7 427.3 150.3 424.7 164 423.5C177.7 422.3 191.3 422.7 204.8 424.7C218.3 426.7 231.7 430.3 245.2 430.8C258.7 431.3 272.3 428.7 286 427.2C299.7 425.7 313.3 425.3 327 425C340.7 424.7 354.3 424.3 368 425.2C381.7 426 395.3 428 409 428.3C422.7 428.7 436.3 427.3 443.2 426.7L450 426L450 451L443.2 451C436.3 451 422.7 451 409 451C395.3 451 381.7 451 368 451C354.3 451 340.7 451 327 451C313.3 451 299.7 451 286 451C272.3 451 258.7 451 245.2 451C231.7 451 218.3 451 204.8 451C191.3 451 177.7 451 164 451C150.3 451 136.7 451 123 451C109.3 451 95.7 451 82 451C68.3 451 54.7 451 41 451C27.3 451 13.7 451 6.8 451L0 451Z" fill="#f65745"></path><path d="M0 439L6.8 438.8C13.7 438.7 27.3 438.3 41 438.3C54.7 438.3 68.3 438.7 82 438.2C95.7 437.7 109.3 436.3 123 435.8C136.7 435.3 150.3 435.7 164 436.3C177.7 437 191.3 438 204.8 437.5C218.3 437 231.7 435 245.2 434C258.7 433 272.3 433 286 434.3C299.7 435.7 313.3 438.3 327 439.7C340.7 441 354.3 441 368 441.3C381.7 441.7 395.3 442.3 409 441.2C422.7 440 436.3 437 443.2 435.5L450 434L450 451L443.2 451C436.3 451 422.7 451 409 451C395.3 451 381.7 451 368 451C354.3 451 340.7 451 327 451C313.3 451 299.7 451 286 451C272.3 451 258.7 451 245.2 451C231.7 451 218.3 451 204.8 451C191.3 451 177.7 451 164 451C150.3 451 136.7 451 123 451C109.3 451 95.7 451 82 451C68.3 451 54.7 451 41 451C27.3 451 13.7 451 6.8 451L0 451Z" fill="#c62368"></path></svg>