<svg id="visual" viewBox="0 0 800 800" width="800" height="800" xmlns="http://www.w3.org/2000/svg" xmlns:xlink="http://www.w3.org/1999/xlink" version="1.1"><g transform="translate(445.00799948672716 347.65588966221)"><path d="M256 -290.9C321.3 -250.3 356.6 -159.7 354 -76.9C351.4 5.9 310.8 81 270.9 162.3C231 243.7 191.8 331.4 119.6 380C47.4 428.5 -57.7 437.9 -155.3 409.7C-252.9 381.5 -342.9 315.8 -394.4 227.4C-445.9 138.9 -458.8 27.9 -426.6 -61.4C-394.4 -150.7 -317.1 -218.2 -238.5 -256.4C-159.8 -294.7 -79.9 -303.6 7.7 -312.8C95.3 -322 190.7 -331.4 256 -290.9" fill="#FF9d02"></path></g></svg>